<svg width="58" height="58" viewBox="0 0 58 58" fill="none" xmlns="http://www.w3.org/2000/svg">
  <path d="M29 53.1667C42.1671 53.1667 52.8333 42.5005 52.8333 29.3333C52.8333 16.1662 42.1671 5.5 29 5.5C15.8329 5.5 5.16667 16.1662 5.16667 29.3333C5.16667 42.5005 15.8329 53.1667 29 53.1667Z" stroke="white" strokeWidth="2" strokeLinecap="round" strokeLinejoin="round"/>
  <path d="M29 21.6667V37" stroke="white" strokeWidth="2" strokeLinecap="round" strokeLinejoin="round"/>
  <path d="M21.3333 29.3333H36.6667" stroke="white" strokeWidth="2" strokeLinecap="round" strokeLinejoin="round"/>
  <path d="M29 42.1667C30.6108 42.1667 31.9167 40.8608 31.9167 39.25C31.9167 37.6392 30.6108 36.3333 29 36.3333C27.3892 36.3333 26.0833 37.6392 26.0833 39.25C26.0833 40.8608 27.3892 42.1667 29 42.1667Z" fill="white"/>
</svg> 