<svg width="58" height="58" viewBox="0 0 58 58" fill="none" xmlns="http://www.w3.org/2000/svg">
  <path d="M18.5833 47.3333C19.7339 47.3333 20.6667 46.4006 20.6667 45.25C20.6667 44.0994 19.7339 43.1667 18.5833 43.1667C17.4327 43.1667 16.5 44.0994 16.5 45.25C16.5 46.4006 17.4327 47.3333 18.5833 47.3333Z" stroke="white" strokeWidth="2" strokeLinecap="round" strokeLinejoin="round"/>
  <path d="M40.0833 47.3333C41.2339 47.3333 42.1667 46.4006 42.1667 45.25C42.1667 44.0994 41.2339 43.1667 40.0833 43.1667C38.9327 43.1667 38 44.0994 38 45.25C38 46.4006 38.9327 47.3333 40.0833 47.3333Z" stroke="white" strokeWidth="2" strokeLinecap="round" strokeLinejoin="round"/>
  <path d="M9.66675 14.5H14.4167L19.9401 35.3942C20.1573 36.3329 20.6803 37.1786 21.4311 37.7909C22.1819 38.4032 23.1197 38.7497 24.0834 38.75H39.9167C40.8804 38.7497 41.8182 38.4032 42.569 37.7909C43.3198 37.1786 43.8428 36.3329 44.0601 35.3942L47.3334 22.8333H16.5001" stroke="white" strokeWidth="2" strokeLinecap="round" strokeLinejoin="round"/>
  <path d="M34.0833 29.0003L38.25 24.8337M38.25 29.0003L34.0833 24.8337" stroke="white" strokeWidth="2" strokeLinecap="round" strokeLinejoin="round"/>
</svg> 