<svg width="58" height="58" viewBox="0 0 58 58" fill="none" xmlns="http://www.w3.org/2000/svg">
  <path d="M41.75 19.3335H16.25C12.0184 19.3335 8.58333 22.7685 8.58333 27.0002V39.6668C8.58333 43.8985 12.0184 47.3335 16.25 47.3335H41.75C45.9816 47.3335 49.4167 43.8985 49.4167 39.6668V27.0002C49.4167 22.7685 45.9816 19.3335 41.75 19.3335Z" stroke="white" strokeWidth="2" strokeLinecap="round" strokeLinejoin="round"/>
  <path d="M31.9167 14.5H26.0833C21.8517 14.5 18.4167 17.935 18.4167 22.1667V24.1667H39.5833V22.1667C39.5833 17.935 36.1483 14.5 31.9167 14.5Z" stroke="white" strokeWidth="2" strokeLinecap="round" strokeLinejoin="round"/>
  <path d="M37.4167 33.25H31.1667L34.8333 29.0833L31.1667 24.9167H37.4167" stroke="white" strokeWidth="2" strokeLinecap="round" strokeLinejoin="round"/>
  <path d="M29 33.25L32.6667 29.0833L29 24.9167" stroke="white" strokeWidth="2" strokeLinecap="round" strokeLinejoin="round"/>
  <path d="M20.5833 24.9167L16.9167 29.0833L20.5833 33.25" stroke="white" strokeWidth="2" strokeLinecap="round" strokeLinejoin="round"/>
  <path d="M26.8333 33.25H20.5833L24.25 29.0833L20.5833 24.9167" stroke="white" strokeWidth="2" strokeLinecap="round" strokeLinejoin="round"/>
</svg> 