<svg width="58" height="58" viewBox="0 0 58 58" fill="none" xmlns="http://www.w3.org/2000/svg">
  <path d="M12.0833 25.6668H45.9167" stroke="white" strokeWidth="2" strokeLinecap="round" strokeLinejoin="round"/>
  <path d="M17.9167 16.9165H40.0833C43.4756 16.9165 46.3333 19.7742 46.3333 23.1665V37.0832C46.3333 40.4754 43.4756 43.3332 40.0833 43.3332H17.9167C14.5244 43.3332 11.6667 40.4754 11.6667 37.0832V23.1665C11.6667 19.7742 14.5244 16.9165 17.9167 16.9165Z" stroke="white" strokeWidth="2" strokeLinecap="round" strokeLinejoin="round"/>
  <path d="M22.0833 35H27.9167C29.0218 35 29.9167 34.1051 29.9167 33V28.75H22.0833C20.9782 28.75 20.0833 29.6449 20.0833 30.75V33C20.0833 34.1051 20.9782 35 22.0833 35Z" stroke="white" strokeWidth="2" strokeLinecap="round" strokeLinejoin="round"/>
  <path d="M29.9167 28.75C32.1218 28.75 33.9167 26.9551 33.9167 24.75V23.1665" stroke="white" strokeWidth="2" strokeLinecap="round" strokeLinejoin="round"/>
</svg> 