<svg width="58" height="58" viewBox="0 0 58 58" fill="none" xmlns="http://www.w3.org/2000/svg">
  <path d="M10.667 14.5C10.667 13.3949 11.5619 12.5 12.667 12.5H45.3337C46.4388 12.5 47.3337 13.3949 47.3337 14.5V43.5C47.3337 44.6051 46.4388 45.5 45.3337 45.5H12.667C11.5619 45.5 10.667 44.6051 10.667 43.5V14.5Z" stroke="white" strokeWidth="2" strokeLinecap="round" strokeLinejoin="round"/>
  <path d="M11.0417 22.167H47.3334" stroke="white" strokeWidth="2" strokeLinecap="round" strokeLinejoin="round"/>
  <path d="M20.6667 17.3333H22.7501" stroke="white" strokeWidth="2" strokeLinecap="round" strokeLinejoin="round"/>
  <path d="M29 17.3333H31.0833" stroke="white" strokeWidth="2" strokeLinecap="round" strokeLinejoin="round"/>
  <path d="M29 33.9167H37.6667" stroke="white" strokeWidth="2" strokeLinecap="round" strokeLinejoin="round"/>
  <path d="M24.0833 29H37.6666" stroke="white" strokeWidth="2" strokeLinecap="round" strokeLinejoin="round"/>
  <path d="M18.5833 29.0003C18.5833 30.1509 19.5161 31.0837 20.6667 31.0837C21.8173 31.0837 22.75 30.1509 22.75 29.0003C22.75 27.8497 21.8173 26.917 20.6667 26.917C19.5161 26.917 18.5833 27.8497 18.5833 29.0003Z" stroke="white" strokeWidth="2" strokeLinecap="round" strokeLinejoin="round"/>
  <path d="M18.5833 38.75C18.5833 39.9006 19.5161 40.8333 20.6667 40.8333C21.8173 40.8333 22.75 39.9006 22.75 38.75C22.75 37.5994 21.8173 36.6667 20.6667 36.6667C19.5161 36.6667 18.5833 37.5994 18.5833 38.75Z" stroke="white" strokeWidth="2" strokeLinecap="round" strokeLinejoin="round"/>
</svg> 